<svg width="161" height="33" viewBox="0 0 161 33" fill="none" xmlns="http://www.w3.org/2000/svg">
<path d="M3.32 32V4H17C20.52 4 23.16 4.66666 24.92 6C26.7067 7.33333 27.6 9.09333 27.6 11.28C27.6 12.7467 27.24 14.0267 26.52 15.12C25.8 16.1867 24.8133 17.0133 23.56 17.6C22.3067 18.1867 20.8667 18.48 19.24 18.48L20 16.84C21.76 16.84 23.32 17.1333 24.68 17.72C26.04 18.28 27.0933 19.12 27.84 20.24C28.6133 21.36 29 22.7333 29 24.36C29 26.76 28.0533 28.64 26.16 30C24.2667 31.3333 21.48 32 17.8 32H3.32ZM9.76 27.12H17.32C19 27.12 20.2667 26.8533 21.12 26.32C22 25.76 22.44 24.88 22.44 23.68C22.44 22.5067 22 21.64 21.12 21.08C20.2667 20.4933 19 20.2 17.32 20.2H9.28V15.48H16.2C17.7733 15.48 18.9733 15.2133 19.8 14.68C20.6533 14.12 21.08 13.28 21.08 12.16C21.08 11.0667 20.6533 10.2533 19.8 9.72C18.9733 9.16 17.7733 8.88 16.2 8.88H9.76V27.12ZM42.5459 32.32C40.7593 32.32 39.1593 31.9733 37.7459 31.28C36.3593 30.5867 35.2793 29.5333 34.5059 28.12C33.7326 26.68 33.3459 24.8533 33.3459 22.64V10.48H39.5859V21.72C39.5859 23.5067 39.9593 24.8267 40.7059 25.68C41.4793 26.5067 42.5593 26.92 43.9459 26.92C44.9059 26.92 45.7593 26.72 46.5059 26.32C47.2526 25.8933 47.8393 25.2533 48.2659 24.4C48.6926 23.52 48.9059 22.4267 48.9059 21.12V10.48H55.1459V32H49.2259V26.08L50.3059 27.8C49.5859 29.2933 48.5193 30.4267 47.1059 31.2C45.7193 31.9467 44.1993 32.32 42.5459 32.32ZM68.1669 32.32C66.3269 32.32 64.5535 32.1067 62.8469 31.68C61.1669 31.2267 59.8335 30.6667 58.8469 30L60.9269 25.52C61.9135 26.1333 63.0735 26.64 64.4069 27.04C65.7669 27.4133 67.1002 27.6 68.4069 27.6C69.8469 27.6 70.8602 27.4267 71.4469 27.08C72.0602 26.7333 72.3669 26.2533 72.3669 25.64C72.3669 25.1333 72.1269 24.76 71.6469 24.52C71.1935 24.2533 70.5802 24.0533 69.8069 23.92C69.0335 23.7867 68.1802 23.6533 67.2469 23.52C66.3402 23.3867 65.4202 23.2133 64.4869 23C63.5535 22.76 62.7002 22.4133 61.9269 21.96C61.1535 21.5067 60.5269 20.8933 60.0469 20.12C59.5935 19.3467 59.3669 18.3467 59.3669 17.12C59.3669 15.76 59.7535 14.56 60.5269 13.52C61.3269 12.48 62.4735 11.6667 63.9669 11.08C65.4602 10.4667 67.2469 10.16 69.3269 10.16C70.7935 10.16 72.2869 10.32 73.8069 10.64C75.3269 10.96 76.5935 11.4267 77.6069 12.04L75.5269 16.48C74.4869 15.8667 73.4335 15.4533 72.3669 15.24C71.3269 15 70.3135 14.88 69.3269 14.88C67.9402 14.88 66.9269 15.0667 66.2869 15.44C65.6469 15.8133 65.3269 16.2933 65.3269 16.88C65.3269 17.4133 65.5535 17.8133 66.0069 18.08C66.4869 18.3467 67.1135 18.56 67.8869 18.72C68.6602 18.88 69.5002 19.0267 70.4069 19.16C71.3402 19.2667 72.2735 19.44 73.2069 19.68C74.1402 19.92 74.9802 20.2667 75.7269 20.72C76.5002 21.1467 77.1269 21.7467 77.6069 22.52C78.0869 23.2667 78.3269 24.2533 78.3269 25.48C78.3269 26.8133 77.9269 28 77.1269 29.04C76.3269 30.0533 75.1669 30.8533 73.6469 31.44C72.1535 32.0267 70.3269 32.32 68.1669 32.32ZM94.8969 32.32C93.0035 32.32 91.3769 31.92 90.0169 31.12C88.6569 30.32 87.6169 29.1067 86.8969 27.48C86.1769 25.8267 85.8169 23.7467 85.8169 21.24C85.8169 18.7067 86.1902 16.6267 86.9369 15C87.7102 13.3733 88.7769 12.16 90.1369 11.36C91.4969 10.56 93.0835 10.16 94.8969 10.16C96.9235 10.16 98.7369 10.6133 100.337 11.52C101.964 12.4267 103.244 13.7067 104.177 15.36C105.137 17.0133 105.617 18.9733 105.617 21.24C105.617 23.48 105.137 25.4267 104.177 27.08C103.244 28.7333 101.964 30.0267 100.337 30.96C98.7369 31.8667 96.9235 32.32 94.8969 32.32ZM82.1769 32V2.32H88.4169V14.84L88.0169 21.2L88.1369 27.6V32H82.1769ZM93.8169 27.2C94.8569 27.2 95.7769 26.96 96.5769 26.48C97.4035 26 98.0569 25.32 98.5369 24.44C99.0435 23.5333 99.2969 22.4667 99.2969 21.24C99.2969 19.9867 99.0435 18.92 98.5369 18.04C98.0569 17.16 97.4035 16.48 96.5769 16C95.7769 15.52 94.8569 15.28 93.8169 15.28C92.7769 15.28 91.8435 15.52 91.0169 16C90.1902 16.48 89.5369 17.16 89.0569 18.04C88.5769 18.92 88.3369 19.9867 88.3369 21.24C88.3369 22.4667 88.5769 23.5333 89.0569 24.44C89.5369 25.32 90.1902 26 91.0169 26.48C91.8435 26.96 92.7769 27.2 93.8169 27.2ZM109.794 32V10.48H116.034V32H109.794ZM112.914 7.48C111.767 7.48 110.834 7.14667 110.114 6.48C109.394 5.81333 109.034 4.98666 109.034 4C109.034 3.01333 109.394 2.18667 110.114 1.52C110.834 0.853331 111.767 0.519998 112.914 0.519998C114.061 0.519998 114.994 0.839998 115.714 1.48C116.434 2.09333 116.794 2.89333 116.794 3.88C116.794 4.92 116.434 5.78667 115.714 6.48C115.021 7.14667 114.087 7.48 112.914 7.48ZM132.505 32.32C130.052 32.32 127.892 31.84 126.025 30.88C124.185 29.92 122.759 28.6133 121.745 26.96C120.732 25.28 120.225 23.3733 120.225 21.24C120.225 19.08 120.719 17.1733 121.705 15.52C122.719 13.84 124.092 12.5333 125.825 11.6C127.559 10.64 129.519 10.16 131.705 10.16C133.812 10.16 135.705 10.6133 137.385 11.52C139.092 12.4 140.439 13.68 141.425 15.36C142.412 17.0133 142.905 19 142.905 21.32C142.905 21.56 142.892 21.84 142.865 22.16C142.839 22.4533 142.812 22.7333 142.785 23H125.305V19.36H139.505L137.105 20.44C137.105 19.32 136.879 18.3467 136.425 17.52C135.972 16.6933 135.345 16.0533 134.545 15.6C133.745 15.12 132.812 14.88 131.745 14.88C130.679 14.88 129.732 15.12 128.905 15.6C128.105 16.0533 127.479 16.7067 127.025 17.56C126.572 18.3867 126.345 19.3733 126.345 20.52V21.48C126.345 22.6533 126.599 23.6933 127.105 24.6C127.639 25.48 128.372 26.16 129.305 26.64C130.265 27.0933 131.385 27.32 132.665 27.32C133.812 27.32 134.812 27.1467 135.665 26.8C136.545 26.4533 137.345 25.9333 138.065 25.24L141.385 28.84C140.399 29.96 139.159 30.8267 137.665 31.44C136.172 32.0267 134.452 32.32 132.505 32.32Z" fill="#D7425A"/>
<rect x="152" y="23" width="9" height="9" fill="#D7425A"/>
</svg>
