<svg width="47" height="28" viewBox="0 0 47 28" fill="none" xmlns="http://www.w3.org/2000/svg">
<path d="M3.32 28V-1.90735e-06H17C20.52 -1.90735e-06 23.16 0.666665 24.92 2C26.7067 3.33333 27.6 5.09333 27.6 7.28C27.6 8.74667 27.24 10.0267 26.52 11.12C25.8 12.1867 24.8133 13.0133 23.56 13.6C22.3067 14.1867 20.8667 14.48 19.24 14.48L20 12.84C21.76 12.84 23.32 13.1333 24.68 13.72C26.04 14.28 27.0933 15.12 27.84 16.24C28.6133 17.36 29 18.7333 29 20.36C29 22.76 28.0533 24.64 26.16 26C24.2667 27.3333 21.48 28 17.8 28H3.32ZM9.76 23.12H17.32C19 23.12 20.2667 22.8533 21.12 22.32C22 21.76 22.44 20.88 22.44 19.68C22.44 18.5067 22 17.64 21.12 17.08C20.2667 16.4933 19 16.2 17.32 16.2H9.28V11.48H16.2C17.7733 11.48 18.9733 11.2133 19.8 10.68C20.6533 10.12 21.08 9.28 21.08 8.16C21.08 7.06667 20.6533 6.25333 19.8 5.72C18.9733 5.16 17.7733 4.88 16.2 4.88H9.76V23.12Z" fill="#D7425A"/>
<rect x="38" y="19" width="9" height="9" fill="#D7425A"/>
</svg>
